<svg width="322" height="162" viewBox="0 0 322 162" fill="none" xmlns="http://www.w3.org/2000/svg">
<path d="M182.265 6.6625C179.993 5.19939 177.542 3.92529 174.93 2.8332C171.383 1.35141 167.588 0.572017 163.71 0.284995C154.347 -0.825761 145.538 1.33741 137.607 6.77918C137.443 6.89119 137.281 7.0032 137.117 7.11521C137.046 7.16421 136.976 7.21555 136.903 7.26455C135.882 7.99028 134.88 8.76967 133.901 9.61207C133.448 9.9971 132.998 10.3868 132.552 10.7952C121.168 21.177 117.142 34.303 120.297 49.4266C120.661 51.1674 121.144 52.8592 121.74 54.5043C125.726 66.5243 134.291 74.995 147.092 79.2536C159.032 83.2253 170.21 82.0632 180.312 76.0474C182.377 74.8876 184.38 73.5412 186.321 72.0221C189.417 69.5975 191.991 66.5896 194.153 63.262C200.371 53.6969 202.622 43.3081 200.038 32.2029C197.395 20.8526 191.398 12.242 182.265 6.66484V6.6625ZM164.506 5.47708C167.203 5.02437 170.022 5.26939 172.782 5.21806C173.12 5.21106 173.477 5.33473 173.801 5.45841C178.38 7.22255 182.394 9.64241 185.828 12.7203C188.572 15.2172 190.945 18.1224 192.916 21.4664C193.13 21.828 193.318 22.2014 193.517 22.5701C175.714 6.78851 148.897 17.2333 145.675 39.0844C145.651 39.1964 145.625 39.3084 145.602 39.4205C145.431 39.0844 145.283 38.8581 145.193 38.6131C139.969 24.3553 149.439 7.99728 164.504 5.47474L164.506 5.47708ZM161.854 28.7003C162.02 28.6839 162.201 28.6933 162.379 28.7189C162.579 28.7609 162.774 28.8216 162.945 28.9056C163.922 29.3957 164.851 29.9464 165.736 30.5484C167.954 32.0955 169.876 33.981 171.428 36.2445C171.672 36.6016 171.785 37.0496 171.86 37.521C171.937 39.4905 171.789 41.4249 171.409 43.3174C171.029 44.9742 170.505 46.582 169.806 48.1525C169.721 48.3415 169.613 48.5398 169.487 48.7195C169.341 48.8805 169.177 49.0229 169.008 49.1302C165.832 51.1534 162.365 52.4438 158.612 52.7892C157.861 52.8592 157.065 52.4508 156.282 52.1638C155.404 51.6528 154.563 51.0927 153.765 50.4883C152.287 49.3239 150.939 48.0475 149.733 46.6194C149.411 46.2297 149.102 45.8306 148.803 45.4153C148.639 45.1866 148.503 44.9066 148.416 44.6172C148.397 44.5355 148.381 44.4539 148.379 44.3745C148.28 42.573 148.367 40.7996 148.646 39.0588C148.982 37.1219 149.562 35.2295 150.383 33.3906C150.552 33.0126 150.853 32.6369 151.193 32.3686C151.237 32.3359 151.28 32.3056 151.324 32.2775C151.686 32.0512 152.05 31.8365 152.418 31.6288C152.472 31.5985 152.524 31.5682 152.578 31.5402C152.615 31.5192 152.655 31.4982 152.693 31.4772C155.54 29.9487 158.593 29.0013 161.856 28.6979L161.854 28.7003ZM135.211 12.3913C135.263 12.3213 135.319 12.2536 135.373 12.1859C135.694 11.8383 136.03 11.4999 136.384 11.1755C139.208 8.97969 142.187 7.22955 145.311 5.91111C145.581 5.79677 145.853 5.68709 146.128 5.57742C146.222 5.54008 146.315 5.50275 146.409 5.46541C146.714 5.3464 147.022 5.23672 147.332 5.12705C151.526 3.63826 155.979 2.9032 160.678 2.9032C160.807 2.92187 160.936 2.94287 161.07 2.97321C150.338 6.68584 143.332 13.8451 141.278 25.018C139.506 34.6601 142.184 42.8554 148.592 49.5806C149.573 50.647 150.639 51.6831 151.796 52.6912C150.906 52.5372 150.308 52.4672 149.724 52.3295C138.253 49.6529 129.995 39.2921 130.075 27.5802C130.113 21.9821 131.826 16.8927 135.209 12.389L135.211 12.3913ZM122.494 47.0651C122.482 47.0021 122.466 46.9391 122.456 46.876C121.149 38.1254 122.698 29.8787 126.937 22.1151C127.099 21.8187 127.313 21.5504 127.599 21.2727C125.634 32.3126 128.406 41.8403 137.114 49.0976C141.853 53.0482 146.956 55.2207 152.364 55.7574C156.878 56.2988 161.631 55.7551 166.299 53.8789C166.053 54.229 165.907 54.4763 165.722 54.691C153.378 68.8765 130.301 65.3225 122.738 47.7745C122.639 47.5458 122.56 47.3101 122.487 47.0674L122.494 47.0651ZM142.743 74.5096C136.131 70.937 130.862 66.0669 127.061 59.6404C126.89 59.2857 126.728 58.9217 126.585 58.546C135.18 65.9362 144.935 68.3934 155.711 64.7531C163.619 62.0813 168.926 57.1015 172.045 50.1756C173.158 47.7558 173.989 45.1049 174.545 42.23C174.646 42.216 174.747 42.202 174.845 42.1857C175.251 43.7305 175.777 45.2543 176.042 46.8224C178.446 61.0475 168.898 74.1432 154.538 76.3367C150.428 76.9645 146.515 76.5444 142.741 74.5073L142.743 74.5096ZM189.126 61.4279C189.097 61.5096 189.072 61.5912 189.043 61.6729C188.152 64.1884 186.619 66.48 185.34 68.8555C185.314 68.8928 185.288 68.9301 185.26 68.9675C185.1 69.1868 184.924 69.3992 184.743 69.6069C184.682 69.6605 184.619 69.7142 184.558 69.7655C182.593 71.3967 180.547 72.8061 178.418 73.9939C172.724 77.0671 166.501 78.5979 159.774 78.6516C159.565 78.6516 159.356 78.6306 159.138 78.5886C169.646 74.6893 176.822 67.7634 178.915 56.5998C181 45.4899 177.181 36.3169 168.466 28.9126C178.326 30.0234 187.255 38.102 189.518 47.8725C190.618 52.6282 190.489 57.1505 189.128 61.4279H189.126ZM192.994 59.8878C192.902 60.0464 192.79 60.1958 192.689 60.3475C194.599 49.2329 191.841 39.6678 183.166 32.3406C174.547 25.0646 164.668 23.8582 153.829 27.6875C156.178 24.7846 158.767 22.6611 161.79 21.0627C174.059 14.5685 189.295 18.9695 196.191 30.9591C196.214 31.0011 196.245 31.0408 196.27 31.0805C196.58 31.6522 196.874 32.2379 197.148 32.8399C197.371 33.33 197.554 33.8573 197.639 34.3871C199.101 43.4271 197.512 51.9211 192.994 59.8878Z" fill="#004043"/>
<path d="M264.792 149.187V153.023H271.594C271.47 153.443 271.43 153.665 271.343 153.866C270.294 156.286 267.968 157.438 264.942 157.039C262.311 156.692 260.304 154.711 259.99 152.029C259.872 151.035 259.842 149.997 259.99 149.012C260.333 146.73 261.523 144.987 263.844 144.35C266.067 143.743 268.191 143.911 269.843 145.825C270.031 146.042 270.324 146.303 270.576 146.31C272.359 146.352 274.143 146.333 276.054 146.333C275.326 143.589 273.747 141.774 271.43 140.553C269.36 139.463 267.123 139.286 264.825 139.356C259.826 139.508 255.598 142.975 254.638 147.771C253.49 153.513 255.908 158.598 260.753 160.691C262.745 161.552 264.832 161.753 266.954 161.573C272.801 161.079 277.967 156.477 276.373 149.189H264.79L264.792 149.187Z" fill="#004043"/>
<path d="M213.722 139.223C207.19 139.176 202.292 144.051 202.268 150.408C202.245 156.843 207.092 161.753 213.704 161.73C220.863 161.704 225.149 156.535 225.205 150.597C225.264 144.415 220.87 139.274 213.72 139.223H213.722ZM219.661 150.475C219.673 155.082 216.452 157.814 212.18 156.827C210.087 156.344 208.674 155 208.188 152.991C207.85 151.595 207.758 150.039 207.991 148.627C208.523 145.398 211.108 143.619 214.445 143.902C217.33 144.144 219.48 146.469 219.658 149.544C219.677 149.855 219.661 150.165 219.661 150.475Z" fill="#004043"/>
<path d="M248.461 148.247C249.653 143.752 246.513 139.727 241.687 139.622C238.678 139.557 235.664 139.629 232.652 139.578C231.725 139.561 231.432 139.874 231.437 140.787C231.455 144.014 231.387 147.241 231.387 150.468C231.387 153.773 231.453 157.079 231.434 160.383C231.43 161.298 231.735 161.648 232.659 161.585C233.554 161.522 234.462 161.508 235.356 161.588C236.413 161.681 236.713 161.249 236.69 160.25C236.636 157.964 236.673 155.677 236.673 153.402C237.8 153.019 238.272 153.381 238.692 154.153C239.879 156.339 241.14 158.489 242.4 160.635C242.604 160.983 242.947 161.485 243.245 161.501C244.975 161.583 246.71 161.541 248.681 161.541C246.973 158.51 245.395 155.719 243.795 152.881C244.273 152.669 244.668 152.505 245.05 152.321C246.808 151.481 247.965 150.128 248.463 148.251L248.461 148.247ZM243.262 146.735C243.201 148.097 242.513 149.162 241.306 149.285C239.851 149.432 238.368 149.32 236.772 149.32V143.717C238.394 143.808 239.987 143.773 241.532 144.023C242.705 144.212 243.32 145.402 243.262 146.737V146.735Z" fill="#004043"/>
<path d="M295.791 140.324C295.667 139.988 295.059 139.652 294.655 139.627C293.332 139.538 291.994 139.655 290.67 139.571C289.71 139.51 289.273 139.9 288.966 140.754C286.623 147.255 284.248 153.744 281.889 160.239C281.751 160.619 281.675 161.023 281.53 161.564C282.208 161.564 282.711 161.58 283.211 161.562C284.372 161.517 285.764 161.823 286.628 161.291C287.377 160.829 287.468 159.378 287.971 158.428C288.154 158.08 288.668 157.714 289.05 157.69C290.491 157.604 291.942 157.639 293.39 157.66C294.475 157.676 295.773 157.399 296.58 157.891C297.272 158.313 297.404 159.644 297.782 160.575C297.841 160.719 297.843 160.915 297.946 161.004C298.193 161.216 298.479 161.527 298.758 161.536C300.275 161.587 301.793 161.562 303.399 161.562C303.366 161.23 303.377 161.109 303.34 161.004C300.84 154.106 298.345 147.206 295.796 140.324H295.791ZM289.715 153.467C290.599 150.807 291.461 148.214 292.325 145.621C292.421 145.631 292.517 145.64 292.613 145.652C293.477 148.219 294.341 150.786 295.245 153.467H289.715Z" fill="#004043"/>
<path d="M156.9 138.873C150.182 138.854 145.38 143.626 145.389 150.31C145.398 156.881 150.297 161.765 156.853 161.734C163.493 161.704 168.281 156.913 168.283 150.298C168.283 143.629 163.563 138.889 156.9 138.873ZM165.324 150.09C165.239 155.037 162.791 158.304 158.702 159.226C153.736 160.344 149.018 157.084 148.522 152.029C148.361 150.366 148.436 148.58 148.865 146.975C149.912 143.059 153.498 140.758 157.587 141.085C161.554 141.4 164.695 144.422 165.187 148.412C165.267 149.066 165.295 149.726 165.326 150.093L165.324 150.09Z" fill="#004043"/>
<path d="M112.179 145.332C111.996 142.07 110.226 139.865 106.691 139.379C103.776 138.978 100.771 139.172 97.8092 139.181C97.5862 139.181 97.1966 139.809 97.1707 140.163C97.0557 141.75 97.0018 143.346 97.0064 144.938C97.0276 150.067 97.0698 155.194 97.152 160.323C97.159 160.733 97.4313 161.394 97.7364 161.499C99.187 162.005 99.816 161.513 99.8231 159.987C99.8348 157.473 99.8254 154.96 99.8254 152.323C100.795 152.323 101.574 152.389 102.337 152.307C103.245 152.209 103.738 152.564 104.182 153.341C105.468 155.604 106.836 157.823 108.191 160.047C109.221 161.741 109.77 161.928 112.155 161.303C110.355 158.204 108.616 155.212 106.86 152.19C107.13 152.067 107.266 151.99 107.409 151.938C110.719 150.786 112.357 148.517 112.179 145.33V145.332ZM106.116 149.756C104.132 150.053 102.097 150.011 99.9146 150.125V141.183C102.093 141.286 104.243 141.199 106.32 141.542C108.306 141.869 109.289 143.477 109.27 145.575C109.252 147.724 108.09 149.462 106.116 149.759V149.756Z" fill="#004043"/>
<path d="M196.259 139.585C191.215 139.601 186.171 139.578 181.129 139.629C180.784 139.634 180.19 140.124 180.153 140.441C180.026 141.461 180.106 142.504 180.106 143.641C181.718 143.641 183.239 143.708 184.751 143.617C185.831 143.552 186.049 143.963 186.04 144.952C185.997 149.304 186.002 153.658 186.049 158.01C186.087 161.583 186.124 161.546 189.758 161.588C190.818 161.599 191.208 161.298 191.208 160.22C191.203 155.245 191.262 150.272 191.302 145.297C191.307 144.772 191.351 144.247 191.379 143.634H197.219C197.219 142.483 197.196 141.515 197.226 140.546C197.247 139.849 196.961 139.58 196.257 139.583L196.259 139.585Z" fill="#004043"/>
<path d="M82.2334 140.266C81.8227 139.116 81.0598 139.141 80.1327 139.141C79.2384 139.141 78.539 139.134 78.1423 140.238C75.9101 146.483 73.5864 152.695 71.305 158.92C71.0139 159.711 70.7769 160.524 70.4858 161.417C73.0466 161.816 73.0982 161.788 73.9409 159.641C74.2389 158.883 74.537 158.125 74.7952 157.355C74.9947 156.767 75.314 156.498 75.9852 156.508C78.7573 156.543 81.5316 156.547 84.306 156.505C85.043 156.494 85.3388 156.811 85.557 157.434C85.9701 158.603 86.4114 159.765 86.9043 160.904C87.4066 162.068 88.5074 161.63 89.2703 161.485C90.1998 161.31 89.5637 160.507 89.4041 160.066C87.0287 153.462 84.5853 146.879 82.2311 140.269L82.2334 140.266ZM76.0111 154.176C77.3701 150.342 78.6915 146.616 80.013 142.887C80.1116 142.882 80.2078 142.875 80.3064 142.87C81.6279 146.592 82.9517 150.317 84.3224 154.174H76.0111V154.176Z" fill="#004043"/>
<path d="M321.829 157.798C321.826 157.763 321.793 157.733 321.685 157.541C319.824 157.541 317.949 157.476 316.078 157.565C314.94 157.618 314.646 157.261 314.656 156.136C314.693 151.045 314.613 145.953 314.618 140.861C314.618 139.93 314.362 139.496 313.358 139.58C312.503 139.65 311.635 139.652 310.78 139.58C309.729 139.491 309.388 139.984 309.391 140.936C309.398 147.388 309.4 153.84 309.384 160.292C309.384 161.226 309.734 161.602 310.71 161.583C313.289 161.534 315.871 161.567 318.451 161.567C320.936 161.567 322.062 160.31 321.829 157.798Z" fill="#004043"/>
<path d="M62.8222 139.202C61.6345 138.609 60.59 139.253 60.5807 140.551C60.5548 144.943 60.5525 149.337 60.5055 153.728C60.4844 155.768 59.9 157.581 57.9847 158.671C53.8372 161.027 49.225 158.421 49.1828 153.7C49.164 151.563 49.1804 149.425 49.1804 147.285H49.117C49.117 144.954 49.0936 142.621 49.1288 140.289C49.1405 139.468 48.9199 139.041 48.0092 139.111C47.2487 139.169 46.4037 138.922 46.3967 140.18C46.3732 144.688 46.1901 149.199 46.2816 153.703C46.3638 157.702 48.4223 160.458 51.8374 161.287C53.2434 161.627 54.7737 161.651 56.2313 161.569C60.0666 161.352 63.0616 158.671 63.2353 154.853C63.4606 149.892 63.2705 144.912 63.2306 139.939C63.2306 139.685 63.0335 139.307 62.8199 139.2L62.8222 139.202Z" fill="#004043"/>
<path d="M31.1423 139.669C27.8023 139.062 24.312 139.26 20.8875 139.162C20.6199 139.155 20.1153 139.641 20.1012 139.916C20.0261 141.529 20.0636 143.143 20.0636 144.821H22.8216C22.8216 143.951 22.8967 143.209 22.8051 142.49C22.6573 141.351 23.183 141.064 24.2064 141.127C25.6476 141.216 27.0934 141.209 28.5346 141.293C32.2643 141.51 35.1443 143.909 35.8414 147.551C36.1136 148.982 36.1653 150.494 36.0526 151.95C35.7686 155.609 33.5529 158.211 29.9406 158.969C28.1684 159.343 26.3001 159.308 24.474 159.373C22.8239 159.431 22.8216 159.382 22.8357 157.726C22.8513 155.926 21.968 155.11 20.1857 155.278C20.12 155.285 20.0636 155.364 19.9909 155.42C19.9909 157.042 19.9979 158.671 19.9885 160.299C19.9815 161.219 20.3664 161.618 21.3405 161.576C23.9928 161.461 26.6522 161.48 29.2998 161.331C33.9495 161.067 37.7121 158.013 38.7425 153.607C39.057 152.265 39.1157 150.835 39.0875 149.449C38.9866 144.536 35.9916 140.548 31.1447 139.669H31.1423Z" fill="#004043"/>
<path d="M130.733 139.501C127.55 138.915 124.201 139.209 120.927 139.16C120.689 139.155 120.246 139.596 120.236 139.844C120.173 141.463 120.204 143.087 120.204 144.775C122.022 144.972 122.923 144.232 122.908 142.553C122.908 142.476 122.912 142.397 122.903 142.32C122.793 141.468 123.166 141.099 124.027 141.137C125.586 141.204 127.149 141.204 128.707 141.295C132.275 141.505 135.038 143.661 135.883 147.11C136.237 148.555 136.348 150.116 136.254 151.602C136.002 155.602 133.712 158.344 129.886 159.039C127.872 159.406 125.769 159.312 123.703 159.336C123.445 159.338 122.994 158.799 122.952 158.472C122.854 157.67 123.006 156.839 122.919 156.034C122.889 155.751 122.483 155.343 122.194 155.292C121.56 155.18 120.894 155.257 120.187 155.257C120.187 157.114 120.215 158.815 120.175 160.514C120.157 161.345 120.506 161.602 121.297 161.574C123.832 161.485 126.374 161.508 128.905 161.357C134.773 161.002 138.495 157.684 139.204 151.983C139.887 146.497 137.692 140.784 130.728 139.501H130.733Z" fill="#004043"/>
<path d="M4.11938 141.125C6.3844 141.167 8.65178 141.125 10.9192 141.144C11.6515 141.151 12.0857 141.029 12.0622 140.128C12.0411 139.27 11.6609 139.092 10.9051 139.097C7.66127 139.12 4.41747 139.127 1.17602 139.092C0.326337 139.083 0.00242618 139.351 0.00477336 140.226C0.0282451 146.947 0.0282451 153.668 7.90047e-05 160.388C-0.00461535 161.314 0.331031 161.592 1.23704 161.578C4.24612 161.534 7.25521 161.562 10.2643 161.562C12.1796 161.562 12.2312 161.501 11.9097 159.385C11.4308 159.385 11.006 159.385 10.5835 159.385C8.31613 159.385 6.04876 159.41 3.78373 159.354C3.43165 159.345 2.79322 158.965 2.78618 158.743C2.71342 156.314 2.74158 153.88 2.74158 151.348H11.1093V148.998C10.6915 148.977 10.3089 148.944 9.9263 148.942C7.97344 148.937 6.01824 148.895 4.06539 148.958C3.12652 148.989 2.74158 148.748 2.7721 147.745C2.82373 146 2.812 144.245 2.69699 142.504C2.62188 141.363 3.11244 141.106 4.12407 141.125H4.11938Z" fill="#004043"/>
<path d="M127.221 115.125C126.989 115.414 126.574 115.692 126.553 115.998C126.435 117.701 126.393 119.409 126.362 121.117C126.337 122.534 126.358 123.95 126.358 125.679C125.869 125.075 125.585 124.73 125.309 124.377C123.046 121.505 120.795 118.62 118.502 115.771C118.248 115.456 117.758 115.256 117.345 115.19C117.211 115.169 116.826 115.755 116.821 116.065C116.781 119.948 116.772 123.831 116.821 127.714C116.826 128.032 117.319 128.342 117.586 128.657C117.8 128.316 118.19 127.98 118.197 127.635C118.262 124.879 118.255 122.121 118.276 119.363C118.279 119.001 118.312 118.639 118.347 117.974C119.76 119.818 120.971 121.423 122.213 123.003C123.56 124.716 124.912 126.426 126.32 128.088C126.571 128.384 127.106 128.442 127.513 128.613C127.628 128.267 127.841 127.922 127.843 127.574C127.865 123.731 127.865 119.885 127.82 116.042C127.815 115.734 127.43 115.433 127.224 115.127L127.221 115.125Z" fill="#004043"/>
<path d="M202.401 115.001C198.292 114.996 195.545 117.773 195.555 121.92C195.564 126.008 198.28 128.706 202.385 128.706C206.521 128.706 209.189 126.057 209.206 121.936C209.222 117.75 206.53 115.006 202.401 115.001ZM200.782 127.191C199.477 126.792 198.524 125.969 197.986 124.718C197.179 122.839 197.16 120.928 197.956 119.052C198.836 116.978 200.892 115.983 203.383 116.345C205.408 116.642 206.995 118.364 207.281 120.597C207.335 121.019 207.335 121.451 207.349 121.687C207.331 125.95 204.432 128.302 200.784 127.189L200.782 127.191Z" fill="#004043"/>
<path d="M181.81 116.896C181.781 116.27 182.373 115.094 181.005 115.148C179.805 115.195 180.181 116.294 180.157 116.973C180.077 119.264 180.134 121.561 180.061 123.852C179.998 125.852 178.627 127.264 176.726 127.429C174.822 127.595 173.179 126.393 172.794 124.505C172.695 124.015 172.719 123.5 172.71 122.996C172.67 120.741 172.656 118.487 172.595 116.233C172.58 115.706 172.557 115.104 171.735 115.108C170.872 115.111 170.973 115.715 170.97 116.249C170.961 117.493 170.968 118.737 170.968 119.981H170.902C170.902 121.108 170.891 122.235 170.902 123.362C170.944 126.673 173.026 128.713 176.362 128.722C179.707 128.731 181.842 126.706 181.885 123.423C181.913 121.246 181.906 119.066 181.81 116.894V116.896Z" fill="#004043"/>
<path d="M136.636 128.482C138.413 127.985 139.38 126.615 139.445 124.769C139.509 122.986 138.852 122.065 136.934 121.311C136.101 120.984 135.237 120.732 134.408 120.394C133.401 119.983 132.653 119.353 132.819 118.119C132.955 117.094 133.77 116.252 135.037 116.285C136.15 116.313 137.248 116.754 138.617 117.073C139.206 116.544 139.063 116.026 138.162 115.596C136.72 114.908 135.221 114.81 133.716 115.251C132.204 115.694 131.294 116.924 131.214 118.42C131.122 120.154 131.761 121.211 133.385 121.883C134.246 122.237 135.159 122.471 136.033 122.804C137.479 123.357 138.025 124.205 137.784 125.434C137.547 126.645 136.519 127.583 135.159 127.42C133.866 127.264 132.62 126.732 131.151 126.305C130.622 126.713 130.571 127.245 131.463 127.805C133.089 128.825 134.84 128.991 136.634 128.487L136.636 128.482Z" fill="#004043"/>
<path d="M187.459 116.331C188.356 116.271 188.595 116.646 188.565 117.493C188.506 119.122 188.548 120.753 188.548 122.384C188.558 122.384 188.565 122.384 188.574 122.384C188.574 124.209 188.544 126.034 188.607 127.856C188.616 128.134 189.123 128.648 189.304 128.61C189.656 128.536 189.999 128.188 190.229 127.87C190.36 127.688 190.271 127.343 190.271 127.072C190.276 123.889 190.313 120.704 190.257 117.524C190.241 116.588 190.539 116.268 191.452 116.334C192.269 116.39 193.095 116.392 193.909 116.317C194.191 116.292 194.447 115.96 194.712 115.769C194.456 115.552 194.205 115.15 193.947 115.146C190.94 115.101 187.933 115.101 184.927 115.143C184.657 115.148 184.391 115.524 184.122 115.727C184.413 115.932 184.69 116.285 184.999 116.317C185.811 116.401 186.64 116.392 187.457 116.336L187.459 116.331Z" fill="#004043"/>
<path d="M158.756 116.31C159.61 116.38 160.476 116.385 161.333 116.331C162.229 116.275 162.591 116.555 162.544 117.514C162.464 119.103 162.523 120.702 162.523 122.296H162.539C162.539 124.006 162.506 125.717 162.563 127.425C162.577 127.828 162.786 128.391 163.096 128.587C163.725 128.988 164.217 128.533 164.222 127.565C164.243 124.184 164.262 120.8 164.229 117.419C164.222 116.602 164.487 116.294 165.302 116.334C166.199 116.378 167.102 116.38 167.996 116.31C168.234 116.292 168.442 115.944 168.665 115.748C168.445 115.538 168.224 115.146 168.001 115.143C164.912 115.104 161.823 115.104 158.734 115.143C158.511 115.146 158.296 115.542 158.077 115.755C158.303 115.949 158.516 116.292 158.756 116.31Z" fill="#004043"/>
<path d="M150.806 115.144C147.759 115.099 144.71 115.099 141.661 115.144C141.417 115.148 141.18 115.578 140.941 115.811C141.185 115.986 141.417 116.289 141.678 116.315C142.415 116.385 143.166 116.404 143.9 116.329C145.043 116.215 145.525 116.551 145.421 117.794C145.302 119.26 145.393 120.744 145.393 122.221C145.41 122.221 145.426 122.221 145.442 122.221C145.442 123.969 145.419 125.717 145.456 127.465C145.468 128.018 145.452 128.701 146.353 128.669C147.311 128.634 147.085 127.91 147.09 127.383C147.116 124.081 147.137 120.779 147.097 117.477C147.085 116.604 147.374 116.287 148.236 116.336C149.092 116.385 149.958 116.383 150.813 116.317C151.066 116.299 151.296 115.984 151.536 115.804C151.292 115.575 151.052 115.151 150.806 115.148V115.144Z" fill="#004043"/>
<path d="M154.77 115.158C154.47 115.237 154.094 115.753 154.083 116.082C154.017 117.986 154.05 119.89 154.05 121.796C154.045 121.796 154.043 121.796 154.038 121.796C154.038 123.74 154.036 125.684 154.038 127.628C154.038 128.148 154.038 128.666 154.801 128.669C155.552 128.671 155.589 128.165 155.589 127.64C155.589 123.792 155.585 119.944 155.578 116.096C155.578 115.547 155.472 114.971 154.766 115.158H154.77Z" fill="#004043"/>
<path d="M112.061 128.668C112.81 128.682 112.861 128.195 112.861 127.658C112.861 123.81 112.857 119.962 112.852 116.114C112.852 115.577 112.805 115.09 112.054 115.108C111.275 115.129 111.326 115.678 111.324 116.179C111.312 118.046 111.319 119.911 111.319 121.778C111.317 121.778 111.315 121.778 111.31 121.778C111.31 123.721 111.305 125.665 111.315 127.609C111.317 128.115 111.289 128.654 112.061 128.671V128.668Z" fill="#004043"/>
</svg>
