<?xml version="1.0" encoding="UTF-8" standalone="no"?>
<!-- Created with Inkscape (http://www.inkscape.org/) -->

<svg
   width="564px"
   height="95px"
   viewBox="0 0 564 95"
   version="1.1"
   id="SVGRoot"
   xmlns="http://www.w3.org/2000/svg"
   xmlns:svg="http://www.w3.org/2000/svg">
  <defs
     id="defs2561" />
  <g
     id="layer1">
    <g
       id="g82"
       transform="matrix(1.3333333,0,0,-1.3333333,-73.456771,2447.0666)">
      <path
         d="m 154.2266,1779.984 c -11.664,0 -21.2128,9.419 -21.252,20.9645 -0.0402,11.5418 9.4425,20.9568 21.106,20.9511 4.7131,-5e-4 9.1879,-1.4768 12.9166,-4.3444 2.9047,-2.2087 3.4957,-6.3045 1.2736,-9.0878 -2.2215,-2.8644 -6.3544,-3.4353 -9.2597,-1.2269 -1.4093,1.0636 -3.0693,1.6433 -4.8855,1.6441 -4.3857,6e-4 -8.0129,-3.6022 -7.9979,-7.9404 0.0156,-4.3376 3.6663,-7.9421 8.0529,-7.9441 1.8168,0 3.4719,0.5738 4.8734,1.6328 2.889,2.2113 7.0282,1.6395 9.2692,-1.2294 2.1595,-2.8661 1.6799,-6.9593 -1.2106,-9.087 -3.7103,-2.8636 -8.1729,-4.3345 -12.886,-4.3325"
         style="fill:#17224d;fill-opacity:1;fill-rule:evenodd;stroke:none"
         id="path84" />
      <path
         d="m 217.7991,1800.9196 c 0.0154,-4.4195 3.5845,-7.9436 8.0499,-7.9453 4.4688,0 8.0107,3.5204 7.9945,7.939 -0.0147,4.4201 -3.5818,7.9404 -8.0495,7.9421 -4.4651,0 -8.0099,-3.5163 -7.9949,-7.9358 z m 29.1963,-0.01 v 0 c 0.04,-11.5441 -9.4374,-20.9549 -21.1014,-20.9506 -11.6608,0 -21.2088,9.4215 -21.2485,20.9659 -0.0408,11.5407 9.4411,20.9548 21.1026,20.9511 11.6648,0 21.2065,-9.4257 21.2473,-20.9664"
         style="fill:#17224d;fill-opacity:1;fill-rule:evenodd;stroke:none"
         id="path86" />
      <path
         d="m 380.4228,1779.9542 c -3.6391,0 -6.628,2.9472 -6.6402,6.5523 l -0.1412,40.7234 c -0.0127,3.6017 2.9552,6.5475 6.594,6.5458 3.64,0 6.6283,-2.9498 6.641,-6.5512 l 0.14,-40.7222 c 0.0134,-3.6057 -2.9548,-6.5489 -6.5936,-6.5481"
         style="fill:#17224d;fill-opacity:1;fill-rule:evenodd;stroke:none"
         id="path88" />
      <path
         d="m 106.9583,1793.016 c -4.4646,0 -8.0331,3.5252 -8.0484,7.9452 -0.0153,4.4201 3.5294,7.941 7.9948,7.939 4.4643,0 8.0348,-3.5249 8.0484,-7.9444 0.017,-4.42 -3.5286,-7.9409 -7.9948,-7.9398 z m 9.9779,26.2947 v 0 c -2.6351,1.4386 -5.6055,2.3386 -8.761,2.5498 -0.0454,0 -0.0893,0.01 -0.1321,0.01 -0.4348,0.031 -0.8685,0.046 -1.3076,0.047 -11.6618,0 -21.1437,-9.4068 -21.1034,-20.9503 0.0383,-11.5418 9.587,-20.9631 21.2485,-20.9665 0.4289,0 0.8504,0.015 1.2657,0.039 0.1417,0.011 0.284,0.022 0.4277,0.034 0.2736,0.02 0.5508,0.045 0.8195,0.079 0.1596,0.021 0.3166,0.037 0.4748,0.059 0.2755,0.041 0.5502,0.084 0.8209,0.135 0.1321,0.026 0.2639,0.04 0.3923,0.072 0.383,0.077 0.7575,0.1604 1.1331,0.2602 0.1417,0.032 0.278,0.077 0.4178,0.1148 0.2344,0.069 0.4666,0.1355 0.6993,0.2064 0.2114,0.067 0.4178,0.138 0.6242,0.2094 0.1131,0.039 0.2299,0.082 0.3404,0.1233 0.3073,0.1148 0.6103,0.2347 0.9108,0.3671 0.6786,0.2787 1.3513,0.5774 2.0061,0.9196 1.6645,-1.6444 4.3452,-2.6138 7.0642,-1.4698 2.3309,0.9811 3.7647,3.3395 3.7548,5.8519 l -0.0477,13.949 c -0.0269,7.8922 -4.4963,14.7849 -11.0483,18.3605"
         style="fill:#17224d;fill-opacity:1;fill-rule:evenodd;stroke:none"
         id="path90" />
      <path
         d="m 413.2559,1792.9074 c -4.4646,0 -8.0362,3.526 -8.0521,7.9453 -0.0147,4.4195 3.5331,7.9415 7.9982,7.9398 4.4691,0 8.0334,-3.5252 8.0485,-7.9447 0.0172,-4.42 -3.5252,-7.9415 -7.9946,-7.9404 z m 9.9782,26.2956 v 0 c -2.6348,1.4372 -5.6058,2.3383 -8.7627,2.5495 -0.0434,0 -0.0867,0.01 -0.1344,0.01 -0.4311,0.031 -0.8648,0.046 -1.3039,0.046 -11.6617,0 -21.1419,-9.4064 -21.1011,-20.95 0.0397,-11.5412 9.5848,-20.963 21.2457,-20.9659 0.4294,0 0.8504,0.015 1.2628,0.04 0.1477,0.01 0.2874,0.022 0.4317,0.034 0.2755,0.021 0.5474,0.046 0.8178,0.079 0.1607,0.02 0.3178,0.038 0.4728,0.058 0.2761,0.041 0.5502,0.085 0.8229,0.1363 0.1333,0.025 0.2614,0.04 0.3904,0.071 0.3824,0.077 0.7622,0.1613 1.1378,0.2608 0.1369,0.032 0.2761,0.077 0.4161,0.1142 0.2344,0.07 0.4677,0.1361 0.7019,0.2064 0.2089,0.067 0.4178,0.1389 0.6225,0.21 0.1122,0.038 0.2253,0.082 0.3396,0.1225 0.3072,0.1154 0.6103,0.2358 0.9107,0.3682 0.6775,0.2787 1.3504,0.5771 2.0041,0.9187 1.6657,-1.6438 4.3469,-2.6138 7.0662,-1.4689 2.3332,0.9808 3.7633,3.3392 3.7542,5.8518 l -0.0465,13.9491 c -0.028,7.8913 -4.4968,14.7841 -11.0486,18.3605"
         style="fill:#17224d;fill-opacity:1;fill-rule:evenodd;stroke:none"
         id="path92" />
      <path
         d="m 347.6917,1793.0738 c -4.4694,0 -8.0374,3.5209 -8.0527,7.943 -0.0144,4.4218 3.5294,7.941 7.9971,7.9395 4.466,0 8.0351,-3.5231 8.0504,-7.9452 0.0153,-4.4217 -3.5283,-7.939 -7.9948,-7.9373 z m 21.1107,9.0987 v 0 c -0.5833,9.7948 -8.0113,17.835 -17.5861,19.4845 -0.7759,0.1332 -1.5602,0.2248 -2.3616,0.2749 -0.4184,0.024 -0.8387,0.041 -1.2636,0.041 -0.4315,0 -0.8541,-0.018 -1.2773,-0.043 -0.1089,-0.01 -0.2177,-0.015 -0.3257,-0.025 -0.3311,-0.026 -0.6585,-0.053 -0.9859,-0.092 -0.1007,-0.016 -0.1996,-0.025 -0.2991,-0.041 -0.3685,-0.049 -0.7313,-0.1069 -1.0936,-0.1766 -0.0507,-0.01 -0.102,-0.017 -0.1545,-0.027 -0.4076,-0.079 -0.805,-0.1686 -1.199,-0.2698 -0.1809,-0.049 -0.3603,-0.1 -0.5344,-0.154 -0.1706,-0.045 -0.3379,-0.093 -0.5034,-0.1448 -8.5555,-2.6841 -14.7628,-10.6316 -14.7305,-19.9775 l 0.0941,-27.2593 c 0.0122,-3.3585 2.7513,-6.0588 6.0579,-6.2263 h 0.5814 c 3.6354,0 6.5242,2.9455 6.5126,6.4649 l -0.0275,7.615 c 0.2418,-0.097 0.4861,-0.1845 0.7336,-0.2718 0.0116,0 0.0244,-0.01 0.0374,-0.013 0.1814,-0.069 0.3665,-0.1247 0.5508,-0.1865 2.1124,-0.7007 4.3659,-1.0873 6.7085,-1.0885 11.6614,0 21.1416,9.4102 21.1014,20.95 -10e-4,0.3921 -0.0153,0.7807 -0.0355,1.1668"
         style="fill:#17224d;fill-opacity:1;fill-rule:evenodd;stroke:none"
         id="path94" />
      <path
         d="m 273.0677,1821.8021 c -4.6798,0.071 -9.1046,-1.3972 -12.8373,-4.1825 -5.4482,-4.0706 -8.3112,-10.3037 -8.3015,-16.6139 l 0.0496,-14.5902 c 0.0127,-3.5986 2.9216,-6.4675 6.5585,-6.4684 3.6351,0 6.5245,2.8662 6.5129,6.4639 l -0.0508,14.5908 h 0.002 c 10e-4,2.3933 1.0752,4.7625 3.1189,6.2878 1.4423,1.078 3.0935,1.6015 4.8558,1.5888 3.6278,-0.043 6.5526,2.8525 6.584,6.4463 0.0791,3.5257 -2.8635,6.4301 -6.4924,6.4774"
         style="fill:#17224d;fill-opacity:1;fill-rule:evenodd;stroke:none"
         id="path96" />
      <path
         d="m 68.6971,1813.1624 c 0.0022,2.3896 1.0737,4.7602 3.1226,6.2881 1.4403,1.0755 3.0957,1.5984 4.8518,1.5826 3.632,-0.043 6.5537,2.8556 6.5849,6.4468 0.0788,3.5283 -2.8588,6.4352 -6.4922,6.4772 -4.6806,0.075 -9.1043,-1.3975 -12.8373,-4.1817 -5.4493,-4.0714 -8.3103,-10.3017 -8.3029,-16.6082 l 0.0535,-15.6801 0.038,-11.0013 c 0.0128,-3.5991 2.9217,-6.4686 6.5571,-6.4695 3.642,0 6.5265,2.865 6.5149,6.4653 l -0.0391,11.0012 -0.0051,1.3751 h 5.4592 c 3.6425,0 6.5268,2.8613 6.514,6.4627 -0.0122,3.604 -2.9174,6.4687 -6.5588,6.4696 h -5.4584 l -0.0036,1.3725 h 0.0014 z"
         style="fill:#17224d;fill-opacity:1;fill-rule:evenodd;stroke:none"
         id="path98" />
      <path
         d="m 195.7255,1792.9494 c -1.7615,-0.015 -3.4189,0.5068 -4.8657,1.5868 -2.0551,1.529 -3.1442,3.8985 -3.1649,6.2887 l -0.0289,8.0833 h 5.4556 c 3.6411,0 6.5293,2.8649 6.516,6.4695 -0.0114,3.5991 -2.92,6.4686 -6.5608,6.4695 h -5.4564 l -0.0184,5.6571 c -0.0128,3.6037 -2.9197,6.4686 -6.5563,6.4692 -3.6422,0 -6.5248,-2.8599 -6.5126,-6.465 l 0.0386,-11.0024 0.0538,-15.6767 c 0.0315,-6.3088 2.9381,-12.5416 8.4155,-16.613 3.75,-2.7879 8.187,-4.2667 12.8653,-4.1916 3.6321,0.037 6.5515,2.9426 6.4463,6.4701 -0.0561,3.5909 -2.9982,6.4933 -6.6271,6.4542"
         style="fill:#17224d;fill-opacity:1;fill-rule:evenodd;stroke:none"
         id="path100" />
      <path
         d="m 317.4242,1821.2547 c -3.4787,1.4729 -7.1952,-0.2423 -8.6709,-3.52 l -5.5865,-14.0366 -5.9301,14.1338 c -1.3371,3.272 -5.2319,4.9122 -8.6159,3.5221 -3.3041,-1.391 -4.9479,-5.1568 -3.6102,-8.5128 l 9.6911,-23.0505 c 0.9215,-2.1917 0.9411,-4.6527 0.0499,-6.8513 l -0.3524,-0.8631 c -0.5907,-1.3468 -1.5582,-2.5458 -2.8703,-3.4062 -1.5112,-0.9944 -3.2106,-1.4144 -4.9777,-1.2948 -3.6487,0.2627 -6.7686,-2.4716 -7.0254,-6.0809 -0.2968,-3.541 2.4778,-6.6362 6.1251,-6.9044 4.7027,-0.3622 9.2466,0.8479 13.1709,3.4215 3.7987,2.4885 6.514,6.0091 8.0232,9.9402 l 14.1653,34.9869 c 1.3935,3.356 -0.1899,7.1249 -3.5861,8.5161"
         style="fill:#17224d;fill-opacity:1;fill-rule:evenodd;stroke:none"
         id="path102" />
      <path
         d="m 457.8219,1803.5209 -5.9295,14.1324 c -1.336,3.2721 -5.2299,4.9136 -8.6159,3.5215 -3.3026,-1.3893 -4.9453,-5.1568 -3.6088,-8.5122 l 9.6903,-23.0445 c 0.9218,-2.1957 0.9377,-4.6576 0.047,-6.8578 l -0.3512,-0.8612 c -0.5924,-1.3476 -1.554,-2.5455 -2.8678,-3.4098 -1.5154,-0.9921 -3.2151,-1.4148 -4.9808,-1.2912 -3.6479,0.2625 -6.7688,-2.4715 -7.0217,-6.0823 -0.2982,-3.5399 2.4764,-6.641 6.1237,-6.9029 4.703,-0.3617 9.2438,0.8484 13.1715,3.4188 3.7987,2.4928 6.5129,6.0118 8.0234,9.9426 l 2.164,5.3056 c 0.8994,2.2028 0.8858,4.6723 -0.0414,6.8709 l -5.7937,13.7829 -0.009,-0.013 z"
         style="fill:#17224d;fill-opacity:1;fill-rule:evenodd;stroke:none"
         id="path104" />
      <path
         d="m 469.6852,1805.7813 c -4.4666,0 -8.0368,3.5231 -8.0521,7.9426 -0.0153,4.4229 3.5317,7.9438 7.9965,7.9421 4.4694,0 8.0348,-3.5251 8.0501,-7.9474 0.0154,-4.4198 -3.5251,-7.9388 -7.9945,-7.9373"
         style="fill:#17224d;fill-opacity:1;fill-rule:evenodd;stroke:none"
         id="path106" />
    </g>
  </g>
</svg>
